<svg xmlns="http://www.w3.org/2000/svg" viewBox="0 0 512 512" width="512" height="512">
  <defs>
    <linearGradient id="glow" x1="0%" y1="0%" x2="100%" y2="100%">
      <stop offset="0%" style="stop-color:#f59e0b;stop-opacity:1"/>
      <stop offset="50%" style="stop-color:#f97316;stop-opacity:1"/>
      <stop offset="100%" style="stop-color:#ef4444;stop-opacity:1"/>
    </linearGradient>
    <linearGradient id="bulb" x1="0%" y1="0%" x2="0%" y2="100%">
      <stop offset="0%" style="stop-color:#fde68a;stop-opacity:1"/>
      <stop offset="100%" style="stop-color:#f59e0b;stop-opacity:1"/>
    </linearGradient>
    <radialGradient id="light" cx="50%" cy="40%" r="50%">
      <stop offset="0%" style="stop-color:#fef3c7;stop-opacity:0.9"/>
      <stop offset="60%" style="stop-color:#fbbf24;stop-opacity:0.3"/>
      <stop offset="100%" style="stop-color:#f59e0b;stop-opacity:0"/>
    </radialGradient>
    <filter id="shadow" x="-20%" y="-20%" width="140%" height="140%">
      <feDropShadow dx="0" dy="4" stdDeviation="8" flood-color="#f59e0b" flood-opacity="0.4"/>
    </filter>
    <filter id="outerGlow">
      <feGaussianBlur in="SourceGraphic" stdDeviation="12" result="blur"/>
      <feColorMatrix in="blur" type="matrix" values="1 0 0 0 0  0.6 0.4 0 0 0  0 0 0 0 0  0 0 0 0.6 0"/>
      <feComposite in="SourceGraphic"/>
    </filter>
  </defs>

  <!-- Background circle -->
  <circle cx="256" cy="256" r="240" fill="#1a1a2e" stroke="url(#glow)" stroke-width="4"/>

  <!-- Light rays -->
  <g opacity="0.3" stroke="#fbbf24" stroke-width="2.5" stroke-linecap="round">
    <line x1="256" y1="80" x2="256" y2="110"/>
    <line x1="160" y1="115" x2="180" y2="138"/>
    <line x1="352" y1="115" x2="332" y2="138"/>
    <line x1="120" y1="200" x2="150" y2="210"/>
    <line x1="392" y1="200" x2="362" y2="210"/>
    <!-- Diagonal subtle rays -->
    <line x1="140" y1="148" x2="168" y2="168" opacity="0.5"/>
    <line x1="372" y1="148" x2="344" y2="168" opacity="0.5"/>
  </g>

  <!-- Light aura -->
  <ellipse cx="256" cy="220" rx="120" ry="110" fill="url(#light)"/>

  <!-- Lightbulb glass -->
  <path d="M 210 240
           C 210 180, 220 150, 256 140
           C 292 150, 302 180, 302 240
           C 302 270, 285 285, 280 295
           L 232 295
           C 227 285, 210 270, 210 240 Z"
        fill="url(#bulb)" filter="url(#shadow)" opacity="0.95"/>

  <!-- Filament — code angle brackets < / > -->
  <g transform="translate(256, 215)" fill="none" stroke="#92400e" stroke-width="4" stroke-linecap="round" stroke-linejoin="round">
    <!-- < -->
    <polyline points="-22,-18 -36,0 -22,18"/>
    <!-- / -->
    <line x1="-8" y1="22" x2="8" y2="-22"/>
    <!-- > -->
    <polyline points="22,-18 36,0 22,18"/>
  </g>

  <!-- Bulb base / screw -->
  <rect x="228" y="295" width="56" height="8" rx="2" fill="#d97706"/>
  <rect x="232" y="305" width="48" height="6" rx="2" fill="#b45309"/>
  <rect x="236" y="313" width="40" height="6" rx="2" fill="#92400e"/>
  <rect x="244" y="321" width="24" height="6" rx="6" fill="#78350f"/>

  <!-- Text: illu -->
  <text x="256" y="410" text-anchor="middle" font-family="'JetBrains Mono', 'Fira Code', 'SF Mono', monospace" font-weight="700" font-size="72" fill="url(#glow)" letter-spacing="-2">illu</text>

  <!-- Subtitle -->
  <text x="256" y="445" text-anchor="middle" font-family="'Inter', 'Helvetica Neue', sans-serif" font-weight="400" font-size="18" fill="#9ca3af" letter-spacing="4">CODE INTELLIGENCE</text>
</svg>
